<svg id="visual" viewBox="0 0 960 540" width="960" height="540" xmlns="http://www.w3.org/2000/svg" xmlns:xlink="http://www.w3.org/1999/xlink" version="1.1"><path d="M0 145L22.8 147.8C45.7 150.7 91.3 156.3 137 161.5C182.7 166.7 228.3 171.3 274 179.3C319.7 187.3 365.3 198.7 411.2 189.2C457 179.7 503 149.3 548.8 139.3C594.7 129.3 640.3 139.7 686 147.3C731.7 155 777.3 160 823 173.7C868.7 187.3 914.3 209.7 937.2 220.8L960 232L960 0L937.2 0C914.3 0 868.7 0 823 0C777.3 0 731.7 0 686 0C640.3 0 594.7 0 548.8 0C503 0 457 0 411.2 0C365.3 0 319.7 0 274 0C228.3 0 182.7 0 137 0C91.3 0 45.7 0 22.8 0L0 0Z" fill="#00adb5"></path><path d="M0 160L22.8 168.8C45.7 177.7 91.3 195.3 137 194.5C182.7 193.7 228.3 174.3 274 169.2C319.7 164 365.3 173 411.2 168.5C457 164 503 146 548.8 137C594.7 128 640.3 128 686 128.2C731.7 128.3 777.3 128.7 823 142C868.7 155.3 914.3 181.7 937.2 194.8L960 208L960 0L937.2 0C914.3 0 868.7 0 823 0C777.3 0 731.7 0 686 0C640.3 0 594.7 0 548.8 0C503 0 457 0 411.2 0C365.3 0 319.7 0 274 0C228.3 0 182.7 0 137 0C91.3 0 45.7 0 22.8 0L0 0Z" fill="#0e98a8"></path><path d="M0 141L22.8 144.7C45.7 148.3 91.3 155.7 137 160.2C182.7 164.7 228.3 166.3 274 153C319.7 139.7 365.3 111.3 411.2 111.8C457 112.3 503 141.7 548.8 144C594.7 146.3 640.3 121.7 686 123.8C731.7 126 777.3 155 823 168C868.7 181 914.3 178 937.2 176.5L960 175L960 0L937.2 0C914.3 0 868.7 0 823 0C777.3 0 731.7 0 686 0C640.3 0 594.7 0 548.8 0C503 0 457 0 411.2 0C365.3 0 319.7 0 274 0C228.3 0 182.7 0 137 0C91.3 0 45.7 0 22.8 0L0 0Z" fill="#1d8397"></path><path d="M0 122L22.8 116C45.7 110 91.3 98 137 98.8C182.7 99.7 228.3 113.3 274 118C319.7 122.7 365.3 118.3 411.2 123.7C457 129 503 144 548.8 137.8C594.7 131.7 640.3 104.3 686 96.7C731.7 89 777.3 101 823 106.3C868.7 111.7 914.3 110.3 937.2 109.7L960 109L960 0L937.2 0C914.3 0 868.7 0 823 0C777.3 0 731.7 0 686 0C640.3 0 594.7 0 548.8 0C503 0 457 0 411.2 0C365.3 0 319.7 0 274 0C228.3 0 182.7 0 137 0C91.3 0 45.7 0 22.8 0L0 0Z" fill="#276f85"></path><path d="M0 122L22.8 112.7C45.7 103.3 91.3 84.7 137 73.3C182.7 62 228.3 58 274 60.3C319.7 62.7 365.3 71.3 411.2 79.7C457 88 503 96 548.8 96.8C594.7 97.7 640.3 91.3 686 87.2C731.7 83 777.3 81 823 79.2C868.7 77.3 914.3 75.7 937.2 74.8L960 74L960 0L937.2 0C914.3 0 868.7 0 823 0C777.3 0 731.7 0 686 0C640.3 0 594.7 0 548.8 0C503 0 457 0 411.2 0C365.3 0 319.7 0 274 0C228.3 0 182.7 0 137 0C91.3 0 45.7 0 22.8 0L0 0Z" fill="#2c5b71"></path><path d="M0 91L22.8 92.3C45.7 93.7 91.3 96.3 137 94.3C182.7 92.3 228.3 85.7 274 79.2C319.7 72.7 365.3 66.3 411.2 62.5C457 58.7 503 57.3 548.8 53.7C594.7 50 640.3 44 686 42.2C731.7 40.3 777.3 42.7 823 49.7C868.7 56.7 914.3 68.3 937.2 74.2L960 80L960 0L937.2 0C914.3 0 868.7 0 823 0C777.3 0 731.7 0 686 0C640.3 0 594.7 0 548.8 0C503 0 457 0 411.2 0C365.3 0 319.7 0 274 0C228.3 0 182.7 0 137 0C91.3 0 45.7 0 22.8 0L0 0Z" fill="#2c495c"></path><path d="M0 41L22.8 41.7C45.7 42.3 91.3 43.7 137 42C182.7 40.3 228.3 35.7 274 37.3C319.7 39 365.3 47 411.2 49.7C457 52.3 503 49.7 548.8 50.5C594.7 51.3 640.3 55.7 686 58.7C731.7 61.7 777.3 63.3 823 66.2C868.7 69 914.3 73 937.2 75L960 77L960 0L937.2 0C914.3 0 868.7 0 823 0C777.3 0 731.7 0 686 0C640.3 0 594.7 0 548.8 0C503 0 457 0 411.2 0C365.3 0 319.7 0 274 0C228.3 0 182.7 0 137 0C91.3 0 45.7 0 22.8 0L0 0Z" fill="#293846"></path><path d="M0 46L22.8 45C45.7 44 91.3 42 137 42.7C182.7 43.3 228.3 46.7 274 44.2C319.7 41.7 365.3 33.3 411.2 28.5C457 23.7 503 22.3 548.8 25.8C594.7 29.3 640.3 37.7 686 35.8C731.7 34 777.3 22 823 18.3C868.7 14.7 914.3 19.3 937.2 21.7L960 24L960 0L937.2 0C914.3 0 868.7 0 823 0C777.3 0 731.7 0 686 0C640.3 0 594.7 0 548.8 0C503 0 457 0 411.2 0C365.3 0 319.7 0 274 0C228.3 0 182.7 0 137 0C91.3 0 45.7 0 22.8 0L0 0Z" fill="#222831"></path></svg>